# xmcd
#
# Track frame offsets:
#	150
#	20873
#	34875
#	53189
#	75115
#	91199
#	112590
#	138794
#	163339
#	178217
#	195490
#
# Disc length: 2820 seconds
#
# Revision: 0
# Processed by: cddbd v1.5.2PL0 Copyright (c) Steve Scherf et al.
# Submitted via: EZCDAudioConverter 1.3.4.1
#
DISCID=830b020b
DTITLE=NEIL FINN - DIZZY HEIGHTS
DYEAR=1900
DGENRE=
TTITLE0=IMPRESSIONS
TTITLE1=DIZZY HEIGHTS
TTITLE2=FLYING IN THE FACE OF LOVE
TTITLE3=DIVEBOMBER
TTITLE4=BETTER THAN TV
TTITLE5=PONY RIDE
TTITLE6=WHITE LIES AND ALIBIS
TTITLE7=RECLUSE
TTITLE8=STRANGEST FRIENDS
TTITLE9=IN MY BLOOD
TTITLE10=LIGHTS OF NEW YORK
EXTD=
EXTT0=
EXTT1=
EXTT2=
EXTT3=
EXTT4=
EXTT5=
EXTT6=
EXTT7=
EXTT8=
EXTT9=
EXTT10=
PLAYORDER=
